<svg width="706" height="105" viewBox="0 0 706 105" fill="none" xmlns="http://www.w3.org/2000/svg">
<path d="M8.864 41.48C6.24 41.48 4.112 40.6 2.48 38.84C0.88 37.08 0.08 34.696 0.08 31.688V23.96C0.08 20.92 0.88 18.52 2.48 16.76C4.08 15 6.208 14.12 8.864 14.12C11.04 14.12 12.784 14.712 14.096 15.896C15.408 17.08 16.064 18.664 16.064 20.648L15.2 19.64H16.16L16.064 13.64V5.96H20.384V41H16.064V35.96H15.2L16.064 34.952C16.064 36.968 15.408 38.568 14.096 39.752C12.784 40.904 11.04 41.48 8.864 41.48ZM10.304 37.736C12.096 37.736 13.504 37.176 14.528 36.056C15.552 34.936 16.064 33.384 16.064 31.4V24.2C16.064 22.216 15.552 20.664 14.528 19.544C13.504 18.424 12.096 17.864 10.304 17.864C8.48 17.864 7.04 18.408 5.984 19.496C4.928 20.584 4.4 22.152 4.4 24.2V31.4C4.4 33.448 4.928 35.016 5.984 36.104C7.04 37.192 8.48 37.736 10.304 37.736ZM39.1813 41.48C37.1013 41.48 35.2773 41.064 33.7093 40.232C32.1733 39.4 30.9733 38.232 30.1093 36.728C29.2773 35.192 28.8613 33.416 28.8613 31.4V24.2C28.8613 22.152 29.2773 20.376 30.1093 18.872C30.9733 17.368 32.1733 16.2 33.7093 15.368C35.2773 14.536 37.1013 14.12 39.1813 14.12C41.2613 14.12 43.0693 14.536 44.6053 15.368C46.1733 16.2 47.3733 17.368 48.2053 18.872C49.0693 20.376 49.5013 22.152 49.5013 24.2V28.856H33.0853V31.4C33.0853 33.48 33.6133 35.08 34.6693 36.2C35.7253 37.288 37.2293 37.832 39.1813 37.832C40.8453 37.832 42.1893 37.544 43.2133 36.968C44.2373 36.36 44.8613 35.464 45.0853 34.28H49.4053C49.1173 36.488 48.0293 38.248 46.1413 39.56C44.2853 40.84 41.9653 41.48 39.1813 41.48ZM45.2773 25.976V24.2C45.2773 22.12 44.7493 20.52 43.6933 19.4C42.6693 18.28 41.1653 17.72 39.1813 17.72C37.2293 17.72 35.7253 18.28 34.6693 19.4C33.6133 20.52 33.0853 22.12 33.0853 24.2V25.592H45.6133L45.2773 25.976ZM64.1225 41V21.176H56.4425V17.24H64.1225V12.68C64.1225 10.6 64.7785 8.968 66.0905 7.784C67.4025 6.568 69.2105 5.96 71.5145 5.96H79.2425V9.896H71.5145C70.5225 9.896 69.7545 10.136 69.2105 10.616C68.6985 11.064 68.4425 11.752 68.4425 12.68V17.24H79.2425V21.176H68.4425V41H64.1225Z" fill="#DB01FF"/>
<path d="M115.541 41V5.96H124.613C126.885 5.96 128.837 6.392 130.469 7.256C132.133 8.12 133.413 9.336 134.309 10.904C135.237 12.472 135.701 14.328 135.701 16.472V30.44C135.701 32.584 135.237 34.456 134.309 36.056C133.413 37.624 132.133 38.84 130.469 39.704C128.837 40.568 126.885 41 124.613 41H115.541ZM119.861 37.16H124.613C126.725 37.16 128.373 36.568 129.557 35.384C130.773 34.2 131.381 32.552 131.381 30.44V16.472C131.381 14.392 130.773 12.76 129.557 11.576C128.373 10.392 126.725 9.8 124.613 9.8H119.861V37.16ZM154.306 41.384C152.194 41.384 150.37 40.984 148.834 40.184C147.298 39.384 146.098 38.232 145.234 36.728C144.402 35.192 143.986 33.384 143.986 31.304V24.296C143.986 22.184 144.402 20.376 145.234 18.872C146.098 17.368 147.298 16.216 148.834 15.416C150.37 14.616 152.194 14.216 154.306 14.216C156.418 14.216 158.242 14.616 159.778 15.416C161.314 16.216 162.498 17.368 163.33 18.872C164.194 20.376 164.626 22.168 164.626 24.248V31.304C164.626 33.384 164.194 35.192 163.33 36.728C162.498 38.232 161.314 39.384 159.778 40.184C158.242 40.984 156.418 41.384 154.306 41.384ZM154.306 37.544C156.194 37.544 157.666 37.016 158.722 35.96C159.778 34.904 160.306 33.352 160.306 31.304V24.296C160.306 22.248 159.778 20.696 158.722 19.64C157.666 18.584 156.194 18.056 154.306 18.056C152.45 18.056 150.978 18.584 149.89 19.64C148.834 20.696 148.306 22.248 148.306 24.296V31.304C148.306 33.352 148.834 34.904 149.89 35.96C150.978 37.016 152.45 37.544 154.306 37.544ZM171.855 41V14.6H175.648V17.768H176.512L175.84 18.92C175.84 17.448 176.224 16.28 176.992 15.416C177.792 14.552 178.864 14.12 180.208 14.12C181.68 14.12 182.816 14.664 183.616 15.752C184.416 16.84 184.816 18.376 184.816 20.36L183.52 17.768H185.536L184.624 18.92C184.624 17.448 185.024 16.28 185.824 15.416C186.656 14.552 187.744 14.12 189.088 14.12C190.752 14.12 192.032 14.744 192.927 15.992C193.856 17.24 194.32 18.888 194.32 20.936V41H190.336V20.888C190.336 19.8 190.096 18.952 189.616 18.344C189.168 17.736 188.496 17.432 187.6 17.432C186.736 17.432 186.048 17.736 185.536 18.344C185.056 18.92 184.816 19.752 184.816 20.84V41H181.359V20.888C181.359 19.768 181.104 18.92 180.592 18.344C180.112 17.736 179.424 17.432 178.528 17.432C177.632 17.432 176.96 17.736 176.512 18.344C176.064 18.92 175.84 19.752 175.84 20.84V41H171.855ZM201.549 41V37.064H210.909V18.536H202.749V14.6H215.229V37.064H224.109V41H201.549ZM212.589 9.848C211.533 9.848 210.701 9.576 210.093 9.032C209.485 8.488 209.181 7.752 209.181 6.824C209.181 5.864 209.485 5.112 210.093 4.568C210.701 3.992 211.533 3.704 212.589 3.704C213.645 3.704 214.477 3.992 215.085 4.568C215.693 5.112 215.997 5.864 215.997 6.824C215.997 7.752 215.693 8.488 215.085 9.032C214.477 9.576 213.645 9.848 212.589 9.848ZM230.666 41V14.6H234.986V19.64H235.898L234.986 20.648C234.986 18.568 235.61 16.968 236.858 15.848C238.106 14.696 239.834 14.12 242.042 14.12C244.698 14.12 246.81 14.936 248.378 16.568C249.946 18.2 250.73 20.424 250.73 23.24V41H246.41V23.72C246.41 21.832 245.898 20.392 244.874 19.4C243.882 18.376 242.522 17.864 240.794 17.864C239.002 17.864 237.578 18.408 236.522 19.496C235.498 20.584 234.986 22.152 234.986 24.2V41H230.666ZM259.111 41V37.064H268.471V18.536H260.311V14.6H272.791V37.064H281.671V41H259.111ZM270.151 9.848C269.095 9.848 268.263 9.576 267.655 9.032C267.047 8.488 266.743 7.752 266.743 6.824C266.743 5.864 267.047 5.112 267.655 4.568C268.263 3.992 269.095 3.704 270.151 3.704C271.207 3.704 272.039 3.992 272.647 4.568C273.255 5.112 273.559 5.864 273.559 6.824C273.559 7.752 273.255 8.488 272.647 9.032C272.039 9.576 271.207 9.848 270.151 9.848ZM288.373 41V5.96H292.693V25.496H297.781L305.461 14.6H310.405L301.525 27.176L310.549 41H305.509L297.829 29.24H292.693V41H288.373ZM315.474 45.8V42.2H338.514V45.8H315.474ZM355.967 41.48C353.855 41.48 352.015 41.08 350.447 40.28C348.911 39.48 347.711 38.328 346.847 36.824C346.015 35.288 345.599 33.48 345.599 31.4V15.56C345.599 13.448 346.015 11.64 346.847 10.136C347.711 8.632 348.911 7.48 350.447 6.68C352.015 5.88 353.855 5.48 355.967 5.48C358.079 5.48 359.903 5.896 361.439 6.728C362.975 7.528 364.159 8.68 364.991 10.184C365.823 11.688 366.239 13.48 366.239 15.56H361.919C361.919 13.576 361.391 12.056 360.335 11C359.311 9.912 357.855 9.368 355.967 9.368C354.079 9.368 352.591 9.896 351.503 10.952C350.447 12.008 349.919 13.528 349.919 15.512V31.4C349.919 33.384 350.447 34.92 351.503 36.008C352.591 37.064 354.079 37.592 355.967 37.592C357.855 37.592 359.311 37.064 360.335 36.008C361.391 34.92 361.919 33.384 361.919 31.4H366.239C366.239 33.448 365.823 35.24 364.991 36.776C364.159 38.28 362.975 39.448 361.439 40.28C359.903 41.08 358.079 41.48 355.967 41.48ZM374.572 41V5.96H378.892V14.6V19.64H379.804L378.892 20.648C378.892 18.568 379.516 16.968 380.764 15.848C382.012 14.696 383.74 14.12 385.948 14.12C388.604 14.12 390.716 14.936 392.284 16.568C393.852 18.2 394.636 20.424 394.636 23.24V41H390.316V23.72C390.316 21.832 389.804 20.376 388.78 19.352C387.788 18.296 386.428 17.768 384.7 17.768C382.908 17.768 381.484 18.328 380.428 19.448C379.404 20.568 378.892 22.152 378.892 24.2V41H374.572ZM413.338 41.48C411.258 41.48 409.434 41.064 407.866 40.232C406.33 39.4 405.13 38.232 404.266 36.728C403.434 35.192 403.018 33.416 403.018 31.4V24.2C403.018 22.152 403.434 20.376 404.266 18.872C405.13 17.368 406.33 16.2 407.866 15.368C409.434 14.536 411.258 14.12 413.338 14.12C415.418 14.12 417.226 14.536 418.762 15.368C420.33 16.2 421.53 17.368 422.362 18.872C423.226 20.376 423.658 22.152 423.658 24.2V28.856H407.242V31.4C407.242 33.48 407.77 35.08 408.826 36.2C409.882 37.288 411.386 37.832 413.338 37.832C415.002 37.832 416.346 37.544 417.37 36.968C418.394 36.36 419.018 35.464 419.242 34.28H423.562C423.274 36.488 422.186 38.248 420.298 39.56C418.442 40.84 416.122 41.48 413.338 41.48ZM419.434 25.976V24.2C419.434 22.12 418.906 20.52 417.85 19.4C416.826 18.28 415.322 17.72 413.338 17.72C411.386 17.72 409.882 18.28 408.826 19.4C407.77 20.52 407.242 22.12 407.242 24.2V25.592H419.77L419.434 25.976ZM433.047 41V14.6H437.271V19.64H438.279L436.887 22.76C436.887 19.912 437.495 17.768 438.711 16.328C439.959 14.856 441.799 14.12 444.231 14.12C447.015 14.12 449.223 15 450.855 16.76C452.519 18.488 453.351 20.84 453.351 23.816V25.4H449.031V24.2C449.031 22.12 448.519 20.536 447.495 19.448C446.503 18.328 445.079 17.768 443.223 17.768C441.399 17.768 439.959 18.328 438.903 19.448C437.879 20.568 437.367 22.152 437.367 24.2V41H433.047ZM470.9 41.48C468.82 41.48 466.996 41.064 465.428 40.232C463.892 39.4 462.692 38.232 461.828 36.728C460.996 35.192 460.58 33.416 460.58 31.4V24.2C460.58 22.152 460.996 20.376 461.828 18.872C462.692 17.368 463.892 16.2 465.428 15.368C466.996 14.536 468.82 14.12 470.9 14.12C472.98 14.12 474.788 14.536 476.324 15.368C477.892 16.2 479.092 17.368 479.924 18.872C480.788 20.376 481.22 22.152 481.22 24.2V28.856H464.804V31.4C464.804 33.48 465.332 35.08 466.388 36.2C467.444 37.288 468.948 37.832 470.9 37.832C472.564 37.832 473.908 37.544 474.932 36.968C475.956 36.36 476.58 35.464 476.804 34.28H481.124C480.836 36.488 479.748 38.248 477.86 39.56C476.004 40.84 473.684 41.48 470.9 41.48ZM476.996 25.976V24.2C476.996 22.12 476.468 20.52 475.412 19.4C474.388 18.28 472.884 17.72 470.9 17.72C468.948 17.72 467.444 18.28 466.388 19.4C465.332 20.52 464.804 22.12 464.804 24.2V25.592H477.332L476.996 25.976ZM498.865 41.384C497.073 41.384 495.505 41.112 494.161 40.568C492.849 39.992 491.793 39.192 490.993 38.168C490.225 37.144 489.761 35.928 489.601 34.52H493.921C494.113 35.448 494.625 36.184 495.457 36.728C496.321 37.272 497.457 37.544 498.865 37.544H500.881C502.577 37.544 503.841 37.208 504.673 36.536C505.505 35.832 505.921 34.904 505.921 33.752C505.921 32.632 505.537 31.752 504.769 31.112C504.033 30.44 502.929 29.992 501.457 29.768L497.905 29.192C495.313 28.744 493.377 27.944 492.097 26.792C490.849 25.608 490.225 23.896 490.225 21.656C490.225 19.288 490.977 17.464 492.481 16.184C493.985 14.872 496.241 14.216 499.249 14.216H501.073C503.601 14.216 505.633 14.808 507.169 15.992C508.705 17.176 509.633 18.776 509.953 20.792H505.633C505.441 19.96 504.961 19.304 504.193 18.824C503.425 18.312 502.385 18.056 501.073 18.056H499.249C497.617 18.056 496.417 18.36 495.649 18.968C494.913 19.576 494.545 20.488 494.545 21.704C494.545 22.792 494.865 23.592 495.505 24.104C496.145 24.616 497.153 24.984 498.529 25.208L502.081 25.784C504.929 26.232 506.993 27.064 508.273 28.28C509.585 29.496 510.241 31.256 510.241 33.56C510.241 35.992 509.457 37.912 507.889 39.32C506.353 40.696 504.017 41.384 500.881 41.384H498.865ZM518.479 41V5.96H522.799V14.6V19.64H523.711L522.799 20.648C522.799 18.568 523.423 16.968 524.671 15.848C525.919 14.696 527.647 14.12 529.855 14.12C532.511 14.12 534.623 14.936 536.191 16.568C537.759 18.2 538.543 20.424 538.543 23.24V41H534.223V23.72C534.223 21.832 533.711 20.376 532.687 19.352C531.695 18.296 530.335 17.768 528.607 17.768C526.815 17.768 525.391 18.328 524.335 19.448C523.311 20.568 522.799 22.152 522.799 24.2V41H518.479ZM547.26 41V14.6H551.58V19.64H552.492L551.58 20.648C551.58 18.568 552.204 16.968 553.452 15.848C554.7 14.696 556.428 14.12 558.636 14.12C561.292 14.12 563.404 14.936 564.972 16.568C566.54 18.2 567.324 20.424 567.324 23.24V41H563.004V23.72C563.004 21.832 562.492 20.392 561.468 19.4C560.476 18.376 559.116 17.864 557.388 17.864C555.596 17.864 554.172 18.408 553.116 19.496C552.092 20.584 551.58 22.152 551.58 24.2V41H547.26ZM586.025 41.48C583.945 41.48 582.121 41.064 580.553 40.232C579.017 39.4 577.817 38.232 576.953 36.728C576.121 35.192 575.705 33.416 575.705 31.4V24.2C575.705 22.152 576.121 20.376 576.953 18.872C577.817 17.368 579.017 16.2 580.553 15.368C582.121 14.536 583.945 14.12 586.025 14.12C588.105 14.12 589.913 14.536 591.449 15.368C593.017 16.2 594.217 17.368 595.049 18.872C595.913 20.376 596.345 22.152 596.345 24.2V28.856H579.929V31.4C579.929 33.48 580.457 35.08 581.513 36.2C582.569 37.288 584.073 37.832 586.025 37.832C587.689 37.832 589.033 37.544 590.057 36.968C591.081 36.36 591.705 35.464 591.929 34.28H596.249C595.961 36.488 594.873 38.248 592.985 39.56C591.129 40.84 588.809 41.48 586.025 41.48ZM592.121 25.976V24.2C592.121 22.12 591.593 20.52 590.537 19.4C589.513 18.28 588.009 17.72 586.025 17.72C584.073 17.72 582.569 18.28 581.513 19.4C580.457 20.52 579.929 22.12 579.929 24.2V25.592H592.457L592.121 25.976ZM611.878 41L603.046 14.6H607.462L613.318 32.36C613.67 33.416 613.99 34.44 614.278 35.432C614.566 36.392 614.774 37.144 614.902 37.688C615.062 37.144 615.286 36.392 615.574 35.432C615.862 34.44 616.166 33.416 616.486 32.36L622.198 14.6H626.566L617.734 41H611.878ZM652.468 46.76C647.924 45.64 644.388 43.432 641.859 40.136C639.332 36.84 638.068 32.808 638.068 28.04V19.4C638.068 16.264 638.644 13.432 639.796 10.904C640.98 8.344 642.644 6.184 644.788 4.424C646.964 2.664 649.524 1.416 652.468 0.679998V4.76C650.42 5.24 648.644 6.168 647.14 7.544C645.636 8.888 644.468 10.568 643.636 12.584C642.804 14.6 642.388 16.872 642.388 19.4V28.04C642.388 30.504 642.788 32.744 643.588 34.76C644.42 36.776 645.588 38.456 647.092 39.8C648.628 41.112 650.42 42.008 652.468 42.488V46.76ZM663.489 46.76V42.488C665.569 42.008 667.361 41.112 668.865 39.8C670.369 38.456 671.521 36.776 672.321 34.76C673.153 32.744 673.569 30.504 673.569 28.04V19.4C673.569 16.872 673.153 14.6 672.321 12.584C671.489 10.568 670.321 8.888 668.817 7.544C667.313 6.168 665.537 5.24 663.489 4.76V0.679998C666.465 1.416 669.025 2.664 671.169 4.424C673.313 6.184 674.961 8.344 676.113 10.904C677.297 13.432 677.889 16.264 677.889 19.4V28.04C677.889 32.808 676.625 36.84 674.097 40.136C671.569 43.432 668.033 45.64 663.489 46.76ZM701.15 21.32C699.966 21.32 699.006 21 698.27 20.36C697.534 19.688 697.166 18.808 697.166 17.72C697.166 16.632 697.534 15.768 698.27 15.128C699.006 14.456 699.966 14.12 701.15 14.12C702.366 14.12 703.326 14.456 704.03 15.128C704.766 15.768 705.134 16.632 705.134 17.72C705.134 18.808 704.766 19.688 704.03 20.36C703.326 21 702.366 21.32 701.15 21.32ZM701.15 41.48C699.966 41.48 699.006 41.16 698.27 40.52C697.534 39.848 697.166 38.968 697.166 37.88C697.166 36.792 697.534 35.928 698.27 35.288C699.006 34.616 699.966 34.28 701.15 34.28C702.366 34.28 703.326 34.616 704.03 35.288C704.766 35.928 705.134 36.792 705.134 37.88C705.134 38.968 704.766 39.848 704.03 40.52C703.326 41.16 702.366 41.48 701.15 41.48Z" fill="white"/>
<path d="M317.922 104V77.6H322.146V82.64H323.154L321.762 85.76C321.762 82.912 322.37 80.768 323.586 79.328C324.834 77.856 326.674 77.12 329.106 77.12C331.89 77.12 334.098 78 335.73 79.76C337.394 81.488 338.226 83.84 338.226 86.816V88.4H333.906V87.2C333.906 85.12 333.394 83.536 332.37 82.448C331.378 81.328 329.954 80.768 328.098 80.768C326.274 80.768 324.834 81.328 323.778 82.448C322.754 83.568 322.242 85.152 322.242 87.2V104H317.922ZM355.775 104.48C353.695 104.48 351.871 104.064 350.303 103.232C348.767 102.4 347.567 101.232 346.703 99.728C345.871 98.192 345.455 96.416 345.455 94.4V87.2C345.455 85.152 345.871 83.376 346.703 81.872C347.567 80.368 348.767 79.2 350.303 78.368C351.871 77.536 353.695 77.12 355.775 77.12C357.855 77.12 359.663 77.536 361.199 78.368C362.767 79.2 363.967 80.368 364.799 81.872C365.663 83.376 366.095 85.152 366.095 87.2V91.856H349.679V94.4C349.679 96.48 350.207 98.08 351.263 99.2C352.319 100.288 353.823 100.832 355.775 100.832C357.439 100.832 358.783 100.544 359.807 99.968C360.831 99.36 361.455 98.464 361.679 97.28H365.999C365.711 99.488 364.623 101.248 362.735 102.56C360.879 103.84 358.559 104.48 355.775 104.48ZM361.871 88.976V87.2C361.871 85.12 361.343 83.52 360.287 82.4C359.263 81.28 357.759 80.72 355.775 80.72C353.823 80.72 352.319 81.28 351.263 82.4C350.207 83.52 349.679 85.12 349.679 87.2V88.592H362.207L361.871 88.976ZM387.436 104C385.164 104 383.388 103.392 382.108 102.176C380.86 100.96 380.236 99.248 380.236 97.04V81.536H372.796V77.6H380.236V70.16H384.556V77.6H395.116V81.536H384.556V97.04C384.556 99.056 385.516 100.064 387.436 100.064H394.636V104H387.436ZM413.29 104.48C410.25 104.48 407.818 103.584 405.993 101.792C404.17 99.968 403.258 97.504 403.258 94.4V77.6H407.578V94.4C407.578 96.384 408.09 97.936 409.114 99.056C410.138 100.144 411.53 100.688 413.29 100.688C415.082 100.688 416.49 100.144 417.514 99.056C418.57 97.936 419.098 96.384 419.098 94.4V77.6H423.418V94.4C423.418 97.504 422.49 99.968 420.634 101.792C418.778 103.584 416.33 104.48 413.29 104.48ZM433.047 104V77.6H437.271V82.64H438.279L436.887 85.76C436.887 82.912 437.495 80.768 438.711 79.328C439.959 77.856 441.799 77.12 444.231 77.12C447.015 77.12 449.223 78 450.855 79.76C452.519 81.488 453.351 83.84 453.351 86.816V88.4H449.031V87.2C449.031 85.12 448.519 83.536 447.495 82.448C446.503 81.328 445.079 80.768 443.223 80.768C441.399 80.768 439.959 81.328 438.903 82.448C437.879 83.568 437.367 85.152 437.367 87.2V104H433.047ZM460.916 104V77.6H465.236V82.64H466.148L465.236 83.648C465.236 81.568 465.86 79.968 467.108 78.848C468.356 77.696 470.084 77.12 472.292 77.12C474.948 77.12 477.06 77.936 478.628 79.568C480.196 81.2 480.98 83.424 480.98 86.24V104H476.66V86.72C476.66 84.832 476.148 83.392 475.124 82.4C474.132 81.376 472.772 80.864 471.044 80.864C469.252 80.864 467.828 81.408 466.772 82.496C465.748 83.584 465.236 85.152 465.236 87.2V104H460.916Z" fill="#FF4141"/>
<path d="M526.303 104V72.848H516.703V68.912H540.223V72.848H530.623V104H526.303ZM548.172 104V77.6H552.396V82.64H553.404L552.012 85.76C552.012 82.912 552.62 80.768 553.836 79.328C555.084 77.856 556.924 77.12 559.356 77.12C562.14 77.12 564.348 78 565.98 79.76C567.644 81.488 568.476 83.84 568.476 86.816V88.4H564.156V87.2C564.156 85.12 563.644 83.536 562.62 82.448C561.628 81.328 560.204 80.768 558.348 80.768C556.524 80.768 555.084 81.328 554.028 82.448C553.004 83.568 552.492 85.152 552.492 87.2V104H548.172ZM585.977 104.48C582.937 104.48 580.505 103.584 578.681 101.792C576.857 99.968 575.945 97.504 575.945 94.4V77.6H580.265V94.4C580.265 96.384 580.777 97.936 581.801 99.056C582.825 100.144 584.217 100.688 585.977 100.688C587.769 100.688 589.177 100.144 590.201 99.056C591.257 97.936 591.785 96.384 591.785 94.4V77.6H596.105V94.4C596.105 97.504 595.177 99.968 593.321 101.792C591.465 103.584 589.017 104.48 585.977 104.48ZM614.806 104.48C612.726 104.48 610.902 104.064 609.334 103.232C607.798 102.4 606.598 101.232 605.734 99.728C604.902 98.192 604.486 96.416 604.486 94.4V87.2C604.486 85.152 604.902 83.376 605.734 81.872C606.598 80.368 607.798 79.2 609.334 78.368C610.902 77.536 612.726 77.12 614.806 77.12C616.886 77.12 618.694 77.536 620.23 78.368C621.798 79.2 622.998 80.368 623.83 81.872C624.694 83.376 625.126 85.152 625.126 87.2V91.856H608.71V94.4C608.71 96.48 609.238 98.08 610.294 99.2C611.35 100.288 612.854 100.832 614.806 100.832C616.47 100.832 617.814 100.544 618.838 99.968C619.862 99.36 620.486 98.464 620.71 97.28H625.03C624.742 99.488 623.654 101.248 621.766 102.56C619.91 103.84 617.59 104.48 614.806 104.48ZM620.902 88.976V87.2C620.902 85.12 620.374 83.52 619.318 82.4C618.294 81.28 616.79 80.72 614.806 80.72C612.854 80.72 611.35 81.28 610.294 82.4C609.238 83.52 608.71 85.12 608.71 87.2V88.592H621.238L620.902 88.976Z" fill="#E47500"/>
</svg>
