<svg width="92" height="92" viewBox="0 0 92 92" fill="none" xmlns="http://www.w3.org/2000/svg">
<path d="M58.2493 49.1157L51.6489 55.2395H45.0485L39.2731 60.5978V55.2395H31.8477V32.2754H58.2493V49.1157Z" fill="#9146FF"/>
<path d="M35.3292 25.876L33.3387 27.8664L29.8555 50.2588L40.3053 55.7325L41.7981 57.7229L51.7503 54.2397L62.6976 45.7803L63.1953 37.8186L62.6976 26.3736L61.2048 25.876H35.3292Z" fill="black"/>
<path d="M34.1255 24.3066L25.875 31.9613V59.5182H35.7756V67.1729L44.0261 59.5182H50.6265L65.4774 45.7398V24.3066H34.1255ZM62.1772 44.2089L55.5768 50.3326H48.9764L43.2011 55.6909V50.3326H35.7756V27.3685H62.1772V44.2089Z" fill="white"/>
<path d="M57.2279 32.7266H53.9277V41.9122H57.2279V32.7266Z" fill="white"/>
<path d="M48.1537 32.7266H44.8535V41.9122H48.1537V32.7266Z" fill="white"/>
</svg>
